<?xml version="1.0" encoding="UTF-8" standalone="no"?>
<!DOCTYPE svg PUBLIC "-//W3C//DTD SVG 1.1//EN" "http://www.w3.org/Graphics/SVG/1.1/DTD/svg11.dtd">
<svg width="100%" height="100%" viewBox="0 0 313 295" version="1.1" xmlns="http://www.w3.org/2000/svg" xmlns:xlink="http://www.w3.org/1999/xlink" xml:space="preserve" xmlns:serif="http://www.serif.com/" style="fill-rule:evenodd;clip-rule:evenodd;stroke-linejoin:round;stroke-miterlimit:2;">
    <g id="Layer_1-2">
        <path d="M313,208.48L313,20C313,8.95 304.05,0 293,0L20,0C8.95,0 0,8.95 0,20L0,208.48L313,208.48Z" style="fill:rgb(103,234,148);fill-rule:nonzero;"/>
        <path d="M0,208.48L313,208.48L313,274.81C313,285.85 304.04,294.81 293,294.81L20,294.81C8.96,294.81 0,285.85 0,274.81L0,208.48Z" style="fill-rule:nonzero;"/>
        <g transform="matrix(0.386342,0,0,0.386342,-66.1682,223.536)">
            <text x="216.86px" y="103.681px" style="font-family:'GoodTimes', 'Good Times';font-size:114.835px;fill:rgb(103,234,148);">OKIEMESH</text>
        </g>
        <g transform="matrix(1,0,0,1,13.2054,0)">
            <path d="M168.03,152.65L129.13,65.91C128.54,64.59 129.5,63.09 130.95,63.09L153.06,63.09C153.84,63.09 154.55,63.54 154.87,64.25L195.16,150.99C195.78,152.32 194.81,153.83 193.35,153.83L169.85,153.83C169.06,153.83 168.35,153.37 168.03,152.65ZM230.99,150.99L190.7,64.25C190.37,63.54 189.66,63.09 188.89,63.09L163.4,63.09C161.98,63.09 161.03,64.54 161.6,65.84L169.15,82.27C169.46,82.99 170.17,83.45 170.95,83.45L173.48,83.45L204.51,152.64C204.83,153.36 205.55,153.82 206.33,153.82L229.17,153.82C230.63,153.82 231.6,152.3 230.98,150.98L230.99,150.99ZM266.87,150.99L226.58,64.25C226.25,63.54 225.54,63.09 224.77,63.09L199.28,63.09C197.86,63.09 196.91,64.54 197.48,65.84L205.03,82.27C205.34,82.99 206.05,83.45 206.83,83.45L209.36,83.45L240.39,152.64C240.71,153.36 241.43,153.82 242.21,153.82L265.05,153.82C266.51,153.82 267.48,152.3 266.86,150.98L266.87,150.99Z" style="fill-rule:nonzero;"/>
            <g transform="matrix(1,0,0,1,0,0.922103)">
                <path d="M134.362,106.558C134.362,119.708 130.138,130.594 121.691,139.215C113.243,147.837 102.488,152.148 89.425,152.148L64.475,152.148C51.499,152.148 40.766,147.837 32.275,139.215C23.784,130.594 19.539,119.708 19.539,106.558C19.539,93.495 23.741,82.958 32.145,74.946C40.548,66.934 51.325,62.928 64.475,62.928L89.425,62.928C102.663,62.928 113.461,66.934 121.821,74.946C130.182,82.958 134.362,93.495 134.362,106.558ZM118.948,107.864C118.948,99.243 116.183,92.189 110.653,86.703C105.123,81.216 98.047,78.473 89.425,78.473L64.475,78.473C55.941,78.473 48.909,81.216 43.379,86.703C37.849,92.189 35.084,99.243 35.084,107.864C35.084,116.399 37.849,123.322 43.379,128.635C48.909,133.947 55.941,136.603 64.475,136.603L89.425,136.603C98.047,136.603 105.123,133.947 110.653,128.635C116.183,123.322 118.948,116.399 118.948,107.864Z" style="fill-rule:nonzero;stroke:black;stroke-width:7.99px;"/>
            </g>
        </g>
    </g>
</svg>
